<?xml version="1.0" encoding="UTF-8" standalone="no"?>
<!-- Created with Inkscape (http://www.inkscape.org/) -->
<svg
   xmlns:dc="http://purl.org/dc/elements/1.1/"
   xmlns:cc="http://web.resource.org/cc/"
   xmlns:rdf="http://www.w3.org/1999/02/22-rdf-syntax-ns#"
   xmlns:svg="http://www.w3.org/2000/svg"
   xmlns="http://www.w3.org/2000/svg"
   xmlns:sodipodi="http://inkscape.sourceforge.net/DTD/sodipodi-0.dtd"
   xmlns:inkscape="http://www.inkscape.org/namespaces/inkscape"
   sodipodi:docname="wkaba.svg"
   sodipodi:docbase="/home/molotov/images/wikipedia/svg"
   inkscape:version="0.41.1"
   sodipodi:version="0.32"
   id="svg2"
   height="943.00000px"
   width="620.00000px">
  <defs
     id="defs3" />
  <sodipodi:namedview
     inkscape:window-y="24"
     inkscape:window-x="25"
     inkscape:window-height="1095"
     inkscape:window-width="1380"
     inkscape:guide-bbox="true"
     showguides="true"
     inkscape:current-layer="layer1"
     inkscape:document-units="px"
     inkscape:cy="532.72144"
     inkscape:cx="372.04501"
     inkscape:zoom="1.0000000"
     inkscape:pageshadow="2"
     inkscape:pageopacity="0.0"
     borderopacity="1.0"
     bordercolor="#666666"
     pagecolor="#ffffff"
     id="base" />
  <metadata
     id="metadata4">
    <rdf:RDF
       id="RDF5">
      <cc:Work
         id="Work6"
         rdf:about="">
        <dc:format
           id="format7">image/svg+xml</dc:format>
        <dc:type
           rdf:resource="http://purl.org/dc/dcmitype/StillImage"
           id="type9" />
      </cc:Work>
    </rdf:RDF>
  </metadata>
  <g
     id="layer1"
     inkscape:groupmode="layer"
     inkscape:label="Layer 1">
    <g
       transform="matrix(1.580944,0.000000,0.000000,1.580944,-212.4479,-382.3933)"
       id="g2185">
      <path
         sodipodi:nodetypes="cccccccccccccccccccccccccccccccccc"
         id="path2150"
         d="M 154.08142,297.04318 L 152.36002,591.60159 C 152.92014,595.97055 152.70977,596.72931 154.08142,601.09108 C 155.45306,606.34905 157.05332,612.06424 159.56800,616.86500 C 162.08268,621.66575 166.46987,628.99749 169.44177,632.19800 C 172.41366,635.39850 315.36626,811.63854 315.36626,811.63854 C 315.36626,811.63854 315.62593,811.96737 319.44954,815.46240 C 322.62726,818.01837 323.45251,819.60604 329.07736,820.09702 C 332.74759,820.19324 334.81623,819.05020 338.02174,816.51299 C 341.78988,813.59432 340.56507,814.91768 343.37750,812.23969 L 499.27866,619.83689 C 502.22191,614.26020 501.58726,616.69507 503.64473,612.35152 C 505.70220,608.00798 505.76089,607.18227 506.44671,602.83873 C 507.90707,594.93231 507.50853,588.06046 507.50853,588.06046 L 508.19435,300.70090 C 508.19435,300.70090 508.42296,296.58596 506.59410,291.09938 C 504.76524,285.61281 506.35799,288.08994 503.38609,282.83197 C 500.41420,277.57400 500.42170,278.06876 496.07816,274.18243 C 491.73462,270.29611 488.61533,267.84762 484.50039,265.56154 C 480.38546,263.27547 478.47539,262.75206 473.21742,261.60902 C 467.95944,260.46599 469.33109,260.92320 462.47287,260.69459 C 455.61464,260.46599 448.29920,261.60902 443.49845,263.43788 C 438.69769,265.26674 435.72579,266.63839 430.69643,269.83889 C 425.97689,272.88449 424.00062,274.63214 420.40910,278.52597 C 417.43720,281.95509 335.97313,382.06873 335.97313,382.06873 C 333.64951,384.85708 331.66435,388.63355 329.80685,388.55985 C 327.94934,388.17634 326.67254,385.66917 323.41947,381.48665 L 238.87199,276.09141 C 232.03848,270.15410 230.08655,268.91535 223.80669,265.49535 C 217.41480,262.63547 207.55277,260.58257 202.08898,260.92320 C 196.96127,260.70371 188.82975,261.60902 184.25760,263.20928 C 179.68545,264.80953 173.71886,268.00546 169.72507,270.86534 C 165.39520,274.06129 161.61179,278.53053 159.55433,282.41686 C 157.49686,286.30319 154.75357,290.65777 154.08142,297.04318 z "
         style="fill:#000000;fill-opacity:1.0000000;fill-rule:evenodd;stroke:#000000;stroke-width:1.0000000px;stroke-linecap:butt;stroke-linejoin:miter;stroke-opacity:1.0000000" />
      <path
         sodipodi:nodetypes="cccccsccscccccc"
         id="path1384"
         d="M 328.42580,820.20850 L 329.45360,462.09024 C 330.90102,455.43210 331.58088,448.62779 337.99482,427.95460 C 348.17206,409.01833 339.99198,424.35067 350.16921,407.68785 C 362.37282,393.34090 428.27547,310.71696 436.09155,301.74295 C 438.69690,298.41389 440.00805,297.44702 442.35931,295.49877 C 444.98627,293.32208 447.65773,291.57375 450.64028,290.85662 C 461.81608,289.13290 461.06171,288.52471 471.41434,291.14611 C 477.31437,293.61476 475.39395,291.81354 481.06083,297.23660 C 484.97352,300.98095 484.87163,301.11210 487.13706,307.56187 C 487.61513,325.09315 486.48644,537.96546 486.55809,560.63580 C 485.18232,574.04264 484.96736,576.83372 479.23328,587.73610 C 461.63036,619.77081 333.72421,768.13518 333.72421,768.13518 L 333.15926,819.45781 L 328.42580,820.20850 z "
         style="fill:#00ad9c;fill-opacity:1.0000000;fill-rule:evenodd;stroke:#00ad9c;stroke-width:1.0000000px;stroke-linecap:butt;stroke-linejoin:miter;stroke-opacity:1.0000000" />
      <path
         sodipodi:nodetypes="ccccccccccccccccccccccc"
         id="path2145"
         d="M 327.87722,820.54576 L 324.51174,819.32744 L 324.51174,767.50977 L 186.13831,596.71412 C 186.13831,596.71412 191.34903,604.24071 186.13831,596.71412 C 180.92760,589.18753 184.40141,596.71412 180.92760,589.18753 C 177.45379,581.66095 180.05914,590.92444 177.45379,581.66095 C 174.84843,572.39745 176.87482,579.92404 174.84843,572.39745 C 172.82204,564.87087 173.40101,561.68654 173.40101,561.68654 L 174.63532,307.49104 C 175.62809,302.90902 175.85719,302.34071 177.56212,299.59860 C 179.57252,295.94009 180.30778,295.51385 183.68568,292.75576 C 187.98000,290.68497 186.58053,291.11120 188.89640,290.53223 C 191.21227,289.95326 191.92799,289.28195 196.55974,289.28195 C 201.19149,289.28195 202.69929,289.57143 206.17310,290.43989 C 209.64691,291.30834 206.93144,290.64412 209.87601,291.30834 C 217.55533,294.95086 218.64578,296.85294 220.78406,297.92208 L 310.23111,411.34836 C 312.44575,414.40304 312.91640,415.34786 315.67448,419.96362 C 319.11988,426.48855 319.51059,426.68747 322.04313,433.73454 C 323.20107,437.49784 323.74452,439.80660 326.21667,447.64577 C 327.77243,453.57575 328.15071,454.65021 328.62490,460.29072 C 328.64089,465.70212 327.87722,820.54576 327.87722,820.54576 z "
         style="fill:#f8ed00;fill-opacity:1.0000000;fill-rule:evenodd;stroke:#f8ed00;stroke-width:1.0000000px;stroke-linecap:butt;stroke-linejoin:miter;stroke-opacity:1.0000000" />
      <path
         sodipodi:nodetypes="ccsssscssssccccccccccccc"
         id="path2172"
         d="M 448.43750,249.90625 C 425.39038,254.52338 408.02793,272.16610 395.00798,290.69805 C 389.58023,297.34040 384.15248,303.98275 378.72474,310.62510 C 373.29699,317.26745 367.86924,323.90980 362.44149,330.55215 C 357.01374,337.19450 351.58599,343.83685 346.15824,350.47920 C 343.44437,353.80038 340.73050,357.12155 338.01662,360.44272 C 335.30275,363.76390 333.38553,364.23989 329.64739,364.60208 C 325.90547,364.18756 325.56916,363.98338 322.51794,360.62318 C 318.62474,356.33571 311.72942,347.84100 308.09426,343.33057 C 300.82395,334.30972 293.53752,325.29966 286.21683,316.31971 C 278.89614,307.33976 271.54120,298.38991 264.13385,289.48946 C 256.72651,280.58901 249.26677,271.73795 241.73648,262.95559 C 214.42763,240.05438 166.68885,245.86916 148.68750,277.65625 C 138.07105,297.48961 143.19557,320.57565 141.82996,342.03122 C 141.36970,427.26716 141.05614,512.52723 141.28125,597.75000 C 146.90986,629.95272 171.70042,653.23963 191.08510,677.82360 C 231.35824,727.22913 271.73807,776.57821 312.50000,825.56250 C 324.25283,835.95965 344.07772,832.01911 352.25334,819.02962 C 384.31830,782.51418 413.67653,743.72363 444.54115,706.20043 C 467.37205,677.98885 489.78225,649.41889 512.21875,620.90625 C 523.32977,598.92910 518.37011,573.68123 519.56755,550.06250 C 519.79964,464.22139 519.82869,378.35722 519.28125,292.53125 C 513.66601,263.53703 482.01924,245.04917 453.70926,249.35414 C 451.95201,249.53818 450.19475,249.72221 448.43750,249.90625 z "
         style="fill:none;fill-opacity:1.0000000;fill-rule:evenodd;stroke:#000000;stroke-width:1.0000000px;stroke-linecap:butt;stroke-linejoin:miter;stroke-opacity:1.0000000" />
    </g>
  </g>
</svg>
